<svg width="356" height="415" viewBox="0 0 356 415" fill="none" xmlns="http://www.w3.org/2000/svg">
<mask id="path-1-outside-1_918_5" maskUnits="userSpaceOnUse" x="0.270508" y="-0.108398" width="356" height="415" fill="black">
<rect fill="white" x="0.270508" y="-0.108398" width="356" height="415"/>
<path d="M353.27 236.322C353.273 236.264 353.267 236.208 353.264 236.15C353.257 236.021 353.232 235.896 353.192 235.771C353.174 235.714 353.16 235.659 353.135 235.604C353.122 235.577 353.12 235.547 353.106 235.521L320.584 172.729L345.292 103.917C345.296 103.906 345.294 103.894 345.297 103.882C345.35 103.726 345.376 103.563 345.377 103.397C345.377 103.37 345.378 103.345 345.376 103.317C345.37 103.157 345.341 102.998 345.284 102.843C345.275 102.821 345.265 102.801 345.255 102.779C345.231 102.721 345.21 102.661 345.179 102.605C345.031 102.345 344.819 102.148 344.576 102.012C344.566 102.007 344.561 101.998 344.55 101.992L289.96 72.7732L284.844 41.3525L284.843 41.343C284.842 41.3377 284.84 41.3335 284.839 41.3283C284.818 41.2051 284.778 41.0873 284.728 40.9715C284.714 40.9399 284.7 40.9094 284.684 40.8789C284.634 40.7821 284.576 40.6905 284.506 40.6042C284.492 40.5874 284.482 40.5695 284.468 40.5537C284.393 40.4684 284.309 40.3895 284.215 40.319C284.203 40.3106 284.19 40.3064 284.179 40.298C284.152 40.2801 284.124 40.2664 284.097 40.2506C284.006 40.1959 283.912 40.1517 283.817 40.1169C283.798 40.1096 283.782 40.0969 283.762 40.0906L236.028 24.9749C236.004 24.9675 235.978 24.9675 235.954 24.9612C235.87 24.9391 235.786 24.9212 235.701 24.9138C235.685 24.9128 235.67 24.9065 235.654 24.9054L207.979 23.0784L179.167 3.17102C178.627 2.79846 177.913 2.79846 177.373 3.17102L148.56 23.0784L120.885 24.9054C120.869 24.9065 120.854 24.9128 120.838 24.9138C120.754 24.9222 120.671 24.9391 120.588 24.9612C120.563 24.9675 120.536 24.9675 120.512 24.9759L72.7779 40.0917C72.76 40.0969 72.7453 40.1096 72.7274 40.1159C72.6285 40.1506 72.5338 40.1969 72.4412 40.2527C72.4149 40.2685 72.3875 40.2811 72.3622 40.299C72.3506 40.3074 72.337 40.3116 72.3254 40.3201C72.2296 40.3895 72.1465 40.4695 72.0718 40.5547C72.0581 40.5705 72.0475 40.5884 72.0349 40.6042C71.9644 40.6905 71.9055 40.7821 71.856 40.8789C71.8402 40.9094 71.8255 40.9399 71.8118 40.9715C71.7623 41.0862 71.7224 41.2051 71.7013 41.3283C71.7003 41.3335 71.6982 41.3377 71.6971 41.343L71.6961 41.3514L66.5813 72.7732L11.9896 101.992C11.9791 101.998 11.9739 102.007 11.9633 102.013C11.8097 102.1 11.6666 102.207 11.5466 102.345C11.5455 102.346 11.5445 102.348 11.5434 102.349C11.4761 102.427 11.415 102.511 11.3624 102.604C11.3308 102.659 11.3108 102.716 11.2877 102.773C11.2772 102.797 11.2656 102.82 11.2561 102.844C11.1993 102.997 11.1709 103.155 11.1646 103.314C11.1635 103.342 11.1624 103.369 11.1624 103.396C11.1645 103.563 11.1909 103.725 11.2435 103.881C11.2477 103.893 11.2456 103.905 11.2487 103.916L35.9583 172.728L3.4346 235.521C3.42092 235.547 3.41776 235.578 3.40618 235.605C3.38197 235.66 3.36831 235.715 3.34936 235.771C3.30937 235.896 3.28411 236.022 3.27675 236.152C3.27359 236.209 3.26832 236.265 3.27148 236.323C3.27885 236.477 3.3083 236.626 3.35987 236.772C3.37039 236.801 3.37145 236.831 3.38302 236.86C3.44617 237.008 3.52932 237.149 3.63877 237.277L40.1332 279.72L37.8642 341.636C37.8632 341.653 37.8705 341.668 37.8705 341.685C37.8695 341.834 37.8842 341.982 37.9253 342.126C37.9263 342.13 37.9263 342.136 37.9284 342.141C37.9695 342.279 38.0358 342.41 38.1157 342.536C38.1336 342.564 38.1515 342.591 38.1715 342.619C38.1904 342.645 38.2052 342.674 38.2262 342.7C38.2988 342.787 38.3799 342.863 38.4662 342.93C38.4714 342.934 38.4757 342.941 38.4809 342.945C38.6019 343.039 38.7367 343.105 38.8756 343.159C38.8924 343.165 38.9061 343.179 38.924 343.185L127.089 373.878L177.323 411.624C177.604 411.835 177.938 411.941 178.272 411.941C178.605 411.941 178.939 411.835 179.22 411.624L229.454 373.878L317.619 343.185C317.637 343.179 317.65 343.166 317.668 343.159C317.806 343.105 317.94 343.039 318.061 342.946C318.067 342.941 318.073 342.934 318.079 342.929C318.164 342.862 318.244 342.788 318.316 342.701C318.337 342.675 318.351 342.646 318.369 342.62C318.389 342.591 318.408 342.564 318.426 342.534C318.506 342.409 318.573 342.279 318.613 342.141C318.615 342.136 318.615 342.13 318.616 342.124C318.657 341.98 318.672 341.832 318.671 341.684C318.671 341.667 318.677 341.651 318.677 341.635L316.408 279.719L352.903 237.276C353.013 237.148 353.096 237.007 353.159 236.858C353.17 236.831 353.172 236.804 353.181 236.777C353.232 236.629 353.262 236.478 353.27 236.322ZM229.474 370.525L195.657 305.189L209.865 295.338C209.929 295.294 209.989 295.245 210.046 295.192L232.746 273.886L313.935 341.121L229.474 370.525ZM127.065 370.525L42.6043 341.121L123.794 273.886L146.494 295.193C146.551 295.246 146.611 295.295 146.675 295.339L160.884 305.19L127.065 370.525ZM43.2852 279.908L110.806 221.966L102.75 253.006C102.744 253.026 102.746 253.047 102.742 253.067C102.721 253.166 102.708 253.265 102.706 253.366C102.705 253.397 102.702 253.429 102.703 253.461C102.707 253.585 102.724 253.708 102.758 253.829C102.764 253.85 102.774 253.869 102.781 253.889C102.813 253.987 102.855 254.08 102.906 254.173C102.926 254.209 102.948 254.242 102.972 254.276C102.993 254.308 103.007 254.34 103.031 254.371C103.067 254.418 103.112 254.457 103.153 254.499C103.169 254.516 103.18 254.538 103.198 254.554L121.475 271.708L41.1488 338.229L43.2852 279.908ZM42.7863 166.922C42.7863 166.922 42.7863 166.921 42.7863 166.92L59.2345 134.906L89.0903 149.246L11.1403 227.826L42.7863 166.922ZM74.2039 45.5832L79.3692 52.6775L64.4239 105.661L74.2039 45.5832ZM120.269 28.3636L125.218 36.7303L81.7055 50.52L75.8215 42.4386L120.269 28.3636ZM148.812 26.2304L170.855 36.0694H128.487L123.655 27.8953L148.812 26.2304ZM178.269 39.2266H223.04L178.269 64.9654L133.5 39.2266H178.269ZM207.729 26.2304L232.885 27.8953L228.053 36.0694H185.684L207.729 26.2304ZM280.719 42.4386L274.835 50.52L231.322 36.7303L236.271 28.3636L280.719 42.4386ZM292.116 105.665L277.17 52.6785L282.335 45.5832L292.116 105.665ZM299.654 132.32L293.649 95.4316L332.469 109.655L315.109 162.158L299.654 132.32ZM214.628 122.367H141.911L118.259 83.4089L178.269 68.3573L238.281 83.3868L214.628 122.367ZM219.888 281.625L186.601 264.934L218.705 229.373L249.834 253.518L219.888 281.625ZM183.339 263.39H173.201L141.576 228.66H214.964L183.339 263.39ZM106.706 253.517L137.835 229.372L169.939 264.933L136.652 281.624L106.706 253.517ZM140.243 225.503L161.179 165.516H195.362L216.297 225.503H140.243ZM195.492 162.359H161.048L143.534 125.524H213.007L195.492 162.359ZM127.402 39.3497L174.097 66.1957L116.214 80.7568L84.2587 53.0216L127.402 39.3497ZM116.159 86.1262L138.785 123.478L94.5471 145.598L116.159 86.1262ZM240.382 86.1262L261.994 145.598L217.756 123.478L240.382 86.1262ZM240.326 80.7568L182.442 66.1957L229.138 39.3508L272.281 53.0226L240.326 80.7568ZM56.8855 132.32L41.4308 162.158L24.0713 109.656L62.8905 95.4327L56.8855 132.32ZM60.2827 131.972L81.9402 55.1917L113.946 82.97L90.8204 146.605L60.2827 131.972ZM140.294 126.255L157.23 161.441L96.4182 148.192L140.294 126.255ZM156.657 164.548L118.506 197.93L94.627 151.033L156.657 164.548ZM119.426 201.321L156.614 168.781L136.688 226.267L106.97 249.318L119.426 201.321ZM148.569 292.81L139.105 283.704L172.873 266.547H183.666L217.434 283.704L207.97 292.699L178.268 313.346L148.569 292.81ZM313.255 279.907L315.392 338.228L235.067 271.708L253.344 254.553C253.361 254.537 253.372 254.516 253.388 254.499C253.431 254.456 253.475 254.417 253.513 254.369C253.537 254.338 253.553 254.304 253.574 254.272C253.596 254.239 253.616 254.208 253.635 254.174C253.688 254.079 253.732 253.981 253.764 253.88C253.769 253.863 253.779 253.847 253.783 253.829C253.818 253.707 253.835 253.583 253.839 253.457C253.84 253.427 253.837 253.397 253.836 253.367C253.834 253.266 253.822 253.167 253.8 253.068C253.796 253.047 253.798 253.027 253.793 253.006L245.736 221.967L313.255 279.907ZM249.571 249.317L219.852 226.266L199.925 168.78L237.113 201.321L249.571 249.317ZM238.034 197.93L199.883 164.547L261.914 151.033L238.034 197.93ZM199.31 161.44L216.245 126.254L260.121 148.191L199.31 161.44ZM265.72 146.605L242.594 82.969L274.6 55.1906L296.257 131.971L265.72 146.605ZM297.439 134.906L314.02 166.919C314.021 166.92 314.021 166.922 314.022 166.923L345.566 227.825L267.516 149.245L297.439 134.906ZM317.138 166.075L335.754 109.772L340.879 106.861L318.602 168.903L317.138 166.075ZM340.537 103.424L334.302 106.965L293.066 91.8566L290.598 76.6945L340.537 103.424ZM178.269 6.38823L204.232 24.3255L178.269 35.9062L152.307 24.3255L178.269 6.38823ZM63.4736 91.8555L22.237 106.965L16.0014 103.424L65.9415 76.6945L63.4736 91.8555ZM15.6583 106.86L20.7846 109.771L39.4018 166.076L37.9368 168.904L15.6583 106.86ZM6.98334 236.323L91.2919 151.441L116.341 200.637L112.195 216.612L41.9013 276.934L6.98334 236.323ZM178.269 408.386L129.853 372.006L163.499 307.002L177.371 316.619C177.641 316.807 177.956 316.901 178.269 316.901C178.583 316.901 178.899 316.807 179.168 316.619L193.04 307.002L226.685 372.006L178.269 408.386ZM314.638 276.934L244.345 216.614L240.199 200.636L265.248 151.441L349.557 236.323L314.638 276.934Z"/>
</mask>
<path d="M353.27 236.322C353.273 236.264 353.267 236.208 353.264 236.15C353.257 236.021 353.232 235.896 353.192 235.771C353.174 235.714 353.16 235.659 353.135 235.604C353.122 235.577 353.12 235.547 353.106 235.521L320.584 172.729L345.292 103.917C345.296 103.906 345.294 103.894 345.297 103.882C345.35 103.726 345.376 103.563 345.377 103.397C345.377 103.37 345.378 103.345 345.376 103.317C345.37 103.157 345.341 102.998 345.284 102.843C345.275 102.821 345.265 102.801 345.255 102.779C345.231 102.721 345.21 102.661 345.179 102.605C345.031 102.345 344.819 102.148 344.576 102.012C344.566 102.007 344.561 101.998 344.55 101.992L289.96 72.7732L284.844 41.3525L284.843 41.343C284.842 41.3377 284.84 41.3335 284.839 41.3283C284.818 41.2051 284.778 41.0873 284.728 40.9715C284.714 40.9399 284.7 40.9094 284.684 40.8789C284.634 40.7821 284.576 40.6905 284.506 40.6042C284.492 40.5874 284.482 40.5695 284.468 40.5537C284.393 40.4684 284.309 40.3895 284.215 40.319C284.203 40.3106 284.19 40.3064 284.179 40.298C284.152 40.2801 284.124 40.2664 284.097 40.2506C284.006 40.1959 283.912 40.1517 283.817 40.1169C283.798 40.1096 283.782 40.0969 283.762 40.0906L236.028 24.9749C236.004 24.9675 235.978 24.9675 235.954 24.9612C235.87 24.9391 235.786 24.9212 235.701 24.9138C235.685 24.9128 235.67 24.9065 235.654 24.9054L207.979 23.0784L179.167 3.17102C178.627 2.79846 177.913 2.79846 177.373 3.17102L148.56 23.0784L120.885 24.9054C120.869 24.9065 120.854 24.9128 120.838 24.9138C120.754 24.9222 120.671 24.9391 120.588 24.9612C120.563 24.9675 120.536 24.9675 120.512 24.9759L72.7779 40.0917C72.76 40.0969 72.7453 40.1096 72.7274 40.1159C72.6285 40.1506 72.5338 40.1969 72.4412 40.2527C72.4149 40.2685 72.3875 40.2811 72.3622 40.299C72.3506 40.3074 72.337 40.3116 72.3254 40.3201C72.2296 40.3895 72.1465 40.4695 72.0718 40.5547C72.0581 40.5705 72.0475 40.5884 72.0349 40.6042C71.9644 40.6905 71.9055 40.7821 71.856 40.8789C71.8402 40.9094 71.8255 40.9399 71.8118 40.9715C71.7623 41.0862 71.7224 41.2051 71.7013 41.3283C71.7003 41.3335 71.6982 41.3377 71.6971 41.343L71.6961 41.3514L66.5813 72.7732L11.9896 101.992C11.9791 101.998 11.9739 102.007 11.9633 102.013C11.8097 102.1 11.6666 102.207 11.5466 102.345C11.5455 102.346 11.5445 102.348 11.5434 102.349C11.4761 102.427 11.415 102.511 11.3624 102.604C11.3308 102.659 11.3108 102.716 11.2877 102.773C11.2772 102.797 11.2656 102.82 11.2561 102.844C11.1993 102.997 11.1709 103.155 11.1646 103.314C11.1635 103.342 11.1624 103.369 11.1624 103.396C11.1645 103.563 11.1909 103.725 11.2435 103.881C11.2477 103.893 11.2456 103.905 11.2487 103.916L35.9583 172.728L3.4346 235.521C3.42092 235.547 3.41776 235.578 3.40618 235.605C3.38197 235.66 3.36831 235.715 3.34936 235.771C3.30937 235.896 3.28411 236.022 3.27675 236.152C3.27359 236.209 3.26832 236.265 3.27148 236.323C3.27885 236.477 3.3083 236.626 3.35987 236.772C3.37039 236.801 3.37145 236.831 3.38302 236.86C3.44617 237.008 3.52932 237.149 3.63877 237.277L40.1332 279.72L37.8642 341.636C37.8632 341.653 37.8705 341.668 37.8705 341.685C37.8695 341.834 37.8842 341.982 37.9253 342.126C37.9263 342.13 37.9263 342.136 37.9284 342.141C37.9695 342.279 38.0358 342.41 38.1157 342.536C38.1336 342.564 38.1515 342.591 38.1715 342.619C38.1904 342.645 38.2052 342.674 38.2262 342.7C38.2988 342.787 38.3799 342.863 38.4662 342.93C38.4714 342.934 38.4757 342.941 38.4809 342.945C38.6019 343.039 38.7367 343.105 38.8756 343.159C38.8924 343.165 38.9061 343.179 38.924 343.185L127.089 373.878L177.323 411.624C177.604 411.835 177.938 411.941 178.272 411.941C178.605 411.941 178.939 411.835 179.22 411.624L229.454 373.878L317.619 343.185C317.637 343.179 317.65 343.166 317.668 343.159C317.806 343.105 317.94 343.039 318.061 342.946C318.067 342.941 318.073 342.934 318.079 342.929C318.164 342.862 318.244 342.788 318.316 342.701C318.337 342.675 318.351 342.646 318.369 342.62C318.389 342.591 318.408 342.564 318.426 342.534C318.506 342.409 318.573 342.279 318.613 342.141C318.615 342.136 318.615 342.13 318.616 342.124C318.657 341.98 318.672 341.832 318.671 341.684C318.671 341.667 318.677 341.651 318.677 341.635L316.408 279.719L352.903 237.276C353.013 237.148 353.096 237.007 353.159 236.858C353.17 236.831 353.172 236.804 353.181 236.777C353.232 236.629 353.262 236.478 353.27 236.322ZM229.474 370.525L195.657 305.189L209.865 295.338C209.929 295.294 209.989 295.245 210.046 295.192L232.746 273.886L313.935 341.121L229.474 370.525ZM127.065 370.525L42.6043 341.121L123.794 273.886L146.494 295.193C146.551 295.246 146.611 295.295 146.675 295.339L160.884 305.19L127.065 370.525ZM43.2852 279.908L110.806 221.966L102.75 253.006C102.744 253.026 102.746 253.047 102.742 253.067C102.721 253.166 102.708 253.265 102.706 253.366C102.705 253.397 102.702 253.429 102.703 253.461C102.707 253.585 102.724 253.708 102.758 253.829C102.764 253.85 102.774 253.869 102.781 253.889C102.813 253.987 102.855 254.08 102.906 254.173C102.926 254.209 102.948 254.242 102.972 254.276C102.993 254.308 103.007 254.34 103.031 254.371C103.067 254.418 103.112 254.457 103.153 254.499C103.169 254.516 103.18 254.538 103.198 254.554L121.475 271.708L41.1488 338.229L43.2852 279.908ZM42.7863 166.922C42.7863 166.922 42.7863 166.921 42.7863 166.92L59.2345 134.906L89.0903 149.246L11.1403 227.826L42.7863 166.922ZM74.2039 45.5832L79.3692 52.6775L64.4239 105.661L74.2039 45.5832ZM120.269 28.3636L125.218 36.7303L81.7055 50.52L75.8215 42.4386L120.269 28.3636ZM148.812 26.2304L170.855 36.0694H128.487L123.655 27.8953L148.812 26.2304ZM178.269 39.2266H223.04L178.269 64.9654L133.5 39.2266H178.269ZM207.729 26.2304L232.885 27.8953L228.053 36.0694H185.684L207.729 26.2304ZM280.719 42.4386L274.835 50.52L231.322 36.7303L236.271 28.3636L280.719 42.4386ZM292.116 105.665L277.17 52.6785L282.335 45.5832L292.116 105.665ZM299.654 132.32L293.649 95.4316L332.469 109.655L315.109 162.158L299.654 132.32ZM214.628 122.367H141.911L118.259 83.4089L178.269 68.3573L238.281 83.3868L214.628 122.367ZM219.888 281.625L186.601 264.934L218.705 229.373L249.834 253.518L219.888 281.625ZM183.339 263.39H173.201L141.576 228.66H214.964L183.339 263.39ZM106.706 253.517L137.835 229.372L169.939 264.933L136.652 281.624L106.706 253.517ZM140.243 225.503L161.179 165.516H195.362L216.297 225.503H140.243ZM195.492 162.359H161.048L143.534 125.524H213.007L195.492 162.359ZM127.402 39.3497L174.097 66.1957L116.214 80.7568L84.2587 53.0216L127.402 39.3497ZM116.159 86.1262L138.785 123.478L94.5471 145.598L116.159 86.1262ZM240.382 86.1262L261.994 145.598L217.756 123.478L240.382 86.1262ZM240.326 80.7568L182.442 66.1957L229.138 39.3508L272.281 53.0226L240.326 80.7568ZM56.8855 132.32L41.4308 162.158L24.0713 109.656L62.8905 95.4327L56.8855 132.32ZM60.2827 131.972L81.9402 55.1917L113.946 82.97L90.8204 146.605L60.2827 131.972ZM140.294 126.255L157.23 161.441L96.4182 148.192L140.294 126.255ZM156.657 164.548L118.506 197.93L94.627 151.033L156.657 164.548ZM119.426 201.321L156.614 168.781L136.688 226.267L106.97 249.318L119.426 201.321ZM148.569 292.81L139.105 283.704L172.873 266.547H183.666L217.434 283.704L207.97 292.699L178.268 313.346L148.569 292.81ZM313.255 279.907L315.392 338.228L235.067 271.708L253.344 254.553C253.361 254.537 253.372 254.516 253.388 254.499C253.431 254.456 253.475 254.417 253.513 254.369C253.537 254.338 253.553 254.304 253.574 254.272C253.596 254.239 253.616 254.208 253.635 254.174C253.688 254.079 253.732 253.981 253.764 253.88C253.769 253.863 253.779 253.847 253.783 253.829C253.818 253.707 253.835 253.583 253.839 253.457C253.84 253.427 253.837 253.397 253.836 253.367C253.834 253.266 253.822 253.167 253.8 253.068C253.796 253.047 253.798 253.027 253.793 253.006L245.736 221.967L313.255 279.907ZM249.571 249.317L219.852 226.266L199.925 168.78L237.113 201.321L249.571 249.317ZM238.034 197.93L199.883 164.547L261.914 151.033L238.034 197.93ZM199.31 161.44L216.245 126.254L260.121 148.191L199.31 161.44ZM265.72 146.605L242.594 82.969L274.6 55.1906L296.257 131.971L265.72 146.605ZM297.439 134.906L314.02 166.919C314.021 166.92 314.021 166.922 314.022 166.923L345.566 227.825L267.516 149.245L297.439 134.906ZM317.138 166.075L335.754 109.772L340.879 106.861L318.602 168.903L317.138 166.075ZM340.537 103.424L334.302 106.965L293.066 91.8566L290.598 76.6945L340.537 103.424ZM178.269 6.38823L204.232 24.3255L178.269 35.9062L152.307 24.3255L178.269 6.38823ZM63.4736 91.8555L22.237 106.965L16.0014 103.424L65.9415 76.6945L63.4736 91.8555ZM15.6583 106.86L20.7846 109.771L39.4018 166.076L37.9368 168.904L15.6583 106.86ZM6.98334 236.323L91.2919 151.441L116.341 200.637L112.195 216.612L41.9013 276.934L6.98334 236.323ZM178.269 408.386L129.853 372.006L163.499 307.002L177.371 316.619C177.641 316.807 177.956 316.901 178.269 316.901C178.583 316.901 178.899 316.807 179.168 316.619L193.04 307.002L226.685 372.006L178.269 408.386ZM314.638 276.934L244.345 216.614L240.199 200.636L265.248 151.441L349.557 236.323L314.638 276.934Z" fill="#0278AE"/>
<path d="M353.27 236.322C353.273 236.264 353.267 236.208 353.264 236.15C353.257 236.021 353.232 235.896 353.192 235.771C353.174 235.714 353.16 235.659 353.135 235.604C353.122 235.577 353.12 235.547 353.106 235.521L320.584 172.729L345.292 103.917C345.296 103.906 345.294 103.894 345.297 103.882C345.35 103.726 345.376 103.563 345.377 103.397C345.377 103.37 345.378 103.345 345.376 103.317C345.37 103.157 345.341 102.998 345.284 102.843C345.275 102.821 345.265 102.801 345.255 102.779C345.231 102.721 345.21 102.661 345.179 102.605C345.031 102.345 344.819 102.148 344.576 102.012C344.566 102.007 344.561 101.998 344.55 101.992L289.96 72.7732L284.844 41.3525L284.843 41.343C284.842 41.3377 284.84 41.3335 284.839 41.3283C284.818 41.2051 284.778 41.0873 284.728 40.9715C284.714 40.9399 284.7 40.9094 284.684 40.8789C284.634 40.7821 284.576 40.6905 284.506 40.6042C284.492 40.5874 284.482 40.5695 284.468 40.5537C284.393 40.4684 284.309 40.3895 284.215 40.319C284.203 40.3106 284.19 40.3064 284.179 40.298C284.152 40.2801 284.124 40.2664 284.097 40.2506C284.006 40.1959 283.912 40.1517 283.817 40.1169C283.798 40.1096 283.782 40.0969 283.762 40.0906L236.028 24.9749C236.004 24.9675 235.978 24.9675 235.954 24.9612C235.87 24.9391 235.786 24.9212 235.701 24.9138C235.685 24.9128 235.67 24.9065 235.654 24.9054L207.979 23.0784L179.167 3.17102C178.627 2.79846 177.913 2.79846 177.373 3.17102L148.56 23.0784L120.885 24.9054C120.869 24.9065 120.854 24.9128 120.838 24.9138C120.754 24.9222 120.671 24.9391 120.588 24.9612C120.563 24.9675 120.536 24.9675 120.512 24.9759L72.7779 40.0917C72.76 40.0969 72.7453 40.1096 72.7274 40.1159C72.6285 40.1506 72.5338 40.1969 72.4412 40.2527C72.4149 40.2685 72.3875 40.2811 72.3622 40.299C72.3506 40.3074 72.337 40.3116 72.3254 40.3201C72.2296 40.3895 72.1465 40.4695 72.0718 40.5547C72.0581 40.5705 72.0475 40.5884 72.0349 40.6042C71.9644 40.6905 71.9055 40.7821 71.856 40.8789C71.8402 40.9094 71.8255 40.9399 71.8118 40.9715C71.7623 41.0862 71.7224 41.2051 71.7013 41.3283C71.7003 41.3335 71.6982 41.3377 71.6971 41.343L71.6961 41.3514L66.5813 72.7732L11.9896 101.992C11.9791 101.998 11.9739 102.007 11.9633 102.013C11.8097 102.1 11.6666 102.207 11.5466 102.345C11.5455 102.346 11.5445 102.348 11.5434 102.349C11.4761 102.427 11.415 102.511 11.3624 102.604C11.3308 102.659 11.3108 102.716 11.2877 102.773C11.2772 102.797 11.2656 102.82 11.2561 102.844C11.1993 102.997 11.1709 103.155 11.1646 103.314C11.1635 103.342 11.1624 103.369 11.1624 103.396C11.1645 103.563 11.1909 103.725 11.2435 103.881C11.2477 103.893 11.2456 103.905 11.2487 103.916L35.9583 172.728L3.4346 235.521C3.42092 235.547 3.41776 235.578 3.40618 235.605C3.38197 235.66 3.36831 235.715 3.34936 235.771C3.30937 235.896 3.28411 236.022 3.27675 236.152C3.27359 236.209 3.26832 236.265 3.27148 236.323C3.27885 236.477 3.3083 236.626 3.35987 236.772C3.37039 236.801 3.37145 236.831 3.38302 236.86C3.44617 237.008 3.52932 237.149 3.63877 237.277L40.1332 279.72L37.8642 341.636C37.8632 341.653 37.8705 341.668 37.8705 341.685C37.8695 341.834 37.8842 341.982 37.9253 342.126C37.9263 342.13 37.9263 342.136 37.9284 342.141C37.9695 342.279 38.0358 342.41 38.1157 342.536C38.1336 342.564 38.1515 342.591 38.1715 342.619C38.1904 342.645 38.2052 342.674 38.2262 342.7C38.2988 342.787 38.3799 342.863 38.4662 342.93C38.4714 342.934 38.4757 342.941 38.4809 342.945C38.6019 343.039 38.7367 343.105 38.8756 343.159C38.8924 343.165 38.9061 343.179 38.924 343.185L127.089 373.878L177.323 411.624C177.604 411.835 177.938 411.941 178.272 411.941C178.605 411.941 178.939 411.835 179.22 411.624L229.454 373.878L317.619 343.185C317.637 343.179 317.65 343.166 317.668 343.159C317.806 343.105 317.94 343.039 318.061 342.946C318.067 342.941 318.073 342.934 318.079 342.929C318.164 342.862 318.244 342.788 318.316 342.701C318.337 342.675 318.351 342.646 318.369 342.62C318.389 342.591 318.408 342.564 318.426 342.534C318.506 342.409 318.573 342.279 318.613 342.141C318.615 342.136 318.615 342.13 318.616 342.124C318.657 341.98 318.672 341.832 318.671 341.684C318.671 341.667 318.677 341.651 318.677 341.635L316.408 279.719L352.903 237.276C353.013 237.148 353.096 237.007 353.159 236.858C353.17 236.831 353.172 236.804 353.181 236.777C353.232 236.629 353.262 236.478 353.27 236.322ZM229.474 370.525L195.657 305.189L209.865 295.338C209.929 295.294 209.989 295.245 210.046 295.192L232.746 273.886L313.935 341.121L229.474 370.525ZM127.065 370.525L42.6043 341.121L123.794 273.886L146.494 295.193C146.551 295.246 146.611 295.295 146.675 295.339L160.884 305.19L127.065 370.525ZM43.2852 279.908L110.806 221.966L102.75 253.006C102.744 253.026 102.746 253.047 102.742 253.067C102.721 253.166 102.708 253.265 102.706 253.366C102.705 253.397 102.702 253.429 102.703 253.461C102.707 253.585 102.724 253.708 102.758 253.829C102.764 253.85 102.774 253.869 102.781 253.889C102.813 253.987 102.855 254.08 102.906 254.173C102.926 254.209 102.948 254.242 102.972 254.276C102.993 254.308 103.007 254.34 103.031 254.371C103.067 254.418 103.112 254.457 103.153 254.499C103.169 254.516 103.18 254.538 103.198 254.554L121.475 271.708L41.1488 338.229L43.2852 279.908ZM42.7863 166.922C42.7863 166.922 42.7863 166.921 42.7863 166.92L59.2345 134.906L89.0903 149.246L11.1403 227.826L42.7863 166.922ZM74.2039 45.5832L79.3692 52.6775L64.4239 105.661L74.2039 45.5832ZM120.269 28.3636L125.218 36.7303L81.7055 50.52L75.8215 42.4386L120.269 28.3636ZM148.812 26.2304L170.855 36.0694H128.487L123.655 27.8953L148.812 26.2304ZM178.269 39.2266H223.04L178.269 64.9654L133.5 39.2266H178.269ZM207.729 26.2304L232.885 27.8953L228.053 36.0694H185.684L207.729 26.2304ZM280.719 42.4386L274.835 50.52L231.322 36.7303L236.271 28.3636L280.719 42.4386ZM292.116 105.665L277.17 52.6785L282.335 45.5832L292.116 105.665ZM299.654 132.32L293.649 95.4316L332.469 109.655L315.109 162.158L299.654 132.32ZM214.628 122.367H141.911L118.259 83.4089L178.269 68.3573L238.281 83.3868L214.628 122.367ZM219.888 281.625L186.601 264.934L218.705 229.373L249.834 253.518L219.888 281.625ZM183.339 263.39H173.201L141.576 228.66H214.964L183.339 263.39ZM106.706 253.517L137.835 229.372L169.939 264.933L136.652 281.624L106.706 253.517ZM140.243 225.503L161.179 165.516H195.362L216.297 225.503H140.243ZM195.492 162.359H161.048L143.534 125.524H213.007L195.492 162.359ZM127.402 39.3497L174.097 66.1957L116.214 80.7568L84.2587 53.0216L127.402 39.3497ZM116.159 86.1262L138.785 123.478L94.5471 145.598L116.159 86.1262ZM240.382 86.1262L261.994 145.598L217.756 123.478L240.382 86.1262ZM240.326 80.7568L182.442 66.1957L229.138 39.3508L272.281 53.0226L240.326 80.7568ZM56.8855 132.32L41.4308 162.158L24.0713 109.656L62.8905 95.4327L56.8855 132.32ZM60.2827 131.972L81.9402 55.1917L113.946 82.97L90.8204 146.605L60.2827 131.972ZM140.294 126.255L157.23 161.441L96.4182 148.192L140.294 126.255ZM156.657 164.548L118.506 197.93L94.627 151.033L156.657 164.548ZM119.426 201.321L156.614 168.781L136.688 226.267L106.97 249.318L119.426 201.321ZM148.569 292.81L139.105 283.704L172.873 266.547H183.666L217.434 283.704L207.97 292.699L178.268 313.346L148.569 292.81ZM313.255 279.907L315.392 338.228L235.067 271.708L253.344 254.553C253.361 254.537 253.372 254.516 253.388 254.499C253.431 254.456 253.475 254.417 253.513 254.369C253.537 254.338 253.553 254.304 253.574 254.272C253.596 254.239 253.616 254.208 253.635 254.174C253.688 254.079 253.732 253.981 253.764 253.88C253.769 253.863 253.779 253.847 253.783 253.829C253.818 253.707 253.835 253.583 253.839 253.457C253.84 253.427 253.837 253.397 253.836 253.367C253.834 253.266 253.822 253.167 253.8 253.068C253.796 253.047 253.798 253.027 253.793 253.006L245.736 221.967L313.255 279.907ZM249.571 249.317L219.852 226.266L199.925 168.78L237.113 201.321L249.571 249.317ZM238.034 197.93L199.883 164.547L261.914 151.033L238.034 197.93ZM199.31 161.44L216.245 126.254L260.121 148.191L199.31 161.44ZM265.72 146.605L242.594 82.969L274.6 55.1906L296.257 131.971L265.72 146.605ZM297.439 134.906L314.02 166.919C314.021 166.92 314.021 166.922 314.022 166.923L345.566 227.825L267.516 149.245L297.439 134.906ZM317.138 166.075L335.754 109.772L340.879 106.861L318.602 168.903L317.138 166.075ZM340.537 103.424L334.302 106.965L293.066 91.8566L290.598 76.6945L340.537 103.424ZM178.269 6.38823L204.232 24.3255L178.269 35.9062L152.307 24.3255L178.269 6.38823ZM63.4736 91.8555L22.237 106.965L16.0014 103.424L65.9415 76.6945L63.4736 91.8555ZM15.6583 106.86L20.7846 109.771L39.4018 166.076L37.9368 168.904L15.6583 106.86ZM6.98334 236.323L91.2919 151.441L116.341 200.637L112.195 216.612L41.9013 276.934L6.98334 236.323ZM178.269 408.386L129.853 372.006L163.499 307.002L177.371 316.619C177.641 316.807 177.956 316.901 178.269 316.901C178.583 316.901 178.899 316.807 179.168 316.619L193.04 307.002L226.685 372.006L178.269 408.386ZM314.638 276.934L244.345 216.614L240.199 200.636L265.248 151.441L349.557 236.323L314.638 276.934Z" stroke="#0278AE" stroke-width="5.18" mask="url(#path-1-outside-1_918_5)"/>
</svg>
