<svg width="35" height="52" viewBox="0 0 35 52" fill="none" xmlns="http://www.w3.org/2000/svg">
<path fill-rule="evenodd" clip-rule="evenodd" d="M17.0455 25.5687C17.0455 20.8617 20.8613 17.0459 25.5683 17.0459C30.2752 17.0459 34.091 20.8617 34.091 25.5687C34.091 30.2756 30.2752 34.0914 25.5683 34.0914C20.8613 34.0914 17.0455 30.2756 17.0455 25.5687Z" fill="#1ABCFE"/>
<path fill-rule="evenodd" clip-rule="evenodd" d="M0 42.6137C0 37.9067 3.81575 34.0909 8.52272 34.0909H17.0454V42.6137C17.0454 47.3206 13.2297 51.1364 8.52272 51.1364C3.81575 51.1364 0 47.3206 0 42.6137Z" fill="#0ACF83"/>
<path fill-rule="evenodd" clip-rule="evenodd" d="M17.0455 3.8147e-05V17.0455H25.5683C30.2752 17.0455 34.091 13.2297 34.091 8.52276C34.091 3.81579 30.2752 3.8147e-05 25.5683 3.8147e-05L17.0455 3.8147e-05Z" fill="#FF7262"/>
<path fill-rule="evenodd" clip-rule="evenodd" d="M0 8.52272C0 13.2297 3.81575 17.0454 8.52272 17.0454H17.0454V0L8.52272 0C3.81575 0 0 3.81575 0 8.52272Z" fill="#F24E1E"/>
<path fill-rule="evenodd" clip-rule="evenodd" d="M0.00012207 25.5687C0.00012207 30.2756 3.81588 34.0914 8.52284 34.0914H17.0456V17.046H8.52284C3.81588 17.046 0.00012207 20.8617 0.00012207 25.5687Z" fill="#A259FF"/>
</svg>
