<svg width="57" height="35" viewBox="0 0 57 35" fill="none" xmlns="http://www.w3.org/2000/svg">
<path fill-rule="evenodd" clip-rule="evenodd" d="M28.4096 0C20.8332 0 16.0992 3.88685 14.2043 11.6606C17.0456 7.77371 20.36 6.31642 24.1477 7.28756C26.3087 7.84151 27.8541 9.4505 29.5631 11.2319C32.3487 14.1327 35.573 17.4897 42.6139 17.4897C50.1892 17.4897 54.9244 13.6028 56.8182 5.83028C53.978 9.71713 50.6635 11.1744 46.8759 10.2021C44.7137 9.64818 43.1684 8.03919 41.4594 6.25896C38.6737 3.35589 35.4505 0 28.4096 0ZM14.2043 17.4897C6.62896 17.4897 1.89383 21.3765 0 29.1502C2.8413 25.2634 6.15578 23.8061 9.94232 24.7772C12.1045 25.3312 13.6498 26.9402 15.3588 28.7216C18.1445 31.6223 21.3676 34.9794 28.4096 34.9794C35.985 34.9794 40.7201 31.0937 42.6139 23.32C39.7726 27.2068 36.4581 28.6641 32.6705 27.693C30.5094 27.1379 28.9641 25.5289 27.2551 23.7486C24.4695 20.8479 21.2452 17.4897 14.2043 17.4897Z" fill="#38BDF8"/>
</svg>
