<svg width="54" height="54" viewBox="0 0 54 54" fill="none" xmlns="http://www.w3.org/2000/svg">
<path d="M39.7762 2.11514C39.7762 0.450438 37.9124 0.450418 37.084 0.658505C38.2437 -0.25708 39.6037 -0.0350989 40.0869 0.242351L51.2864 5.73384C52.3536 6.2571 53.0305 7.34584 53.0305 8.53895V44.665C53.0305 45.8741 52.3355 46.9744 51.2467 47.4892L40.7082 52.4723C39.9833 52.7844 38.4094 53.5543 37.084 52.4722C38.7408 52.7844 39.6382 51.6052 39.7762 50.8076V2.11514Z" fill="url(#paint0_linear_49_251)"/>
<path d="M37.2182 0.628402C38.0974 0.45466 39.7761 0.535233 39.7761 2.11505V14.5501L5.82119 40.2371C5.22768 40.6861 4.39243 40.6116 3.88691 40.0646L0.387372 36.2779C-0.160863 35.6846 -0.122504 34.7561 0.472772 34.2105L37.0838 0.658415L37.2182 0.628402Z" fill="url(#paint1_linear_49_251)"/>
<path d="M39.7761 38.5806L5.82119 12.8936C5.22769 12.4446 4.39243 12.5191 3.88691 13.0661L0.387372 16.8528C-0.160863 17.4461 -0.122504 18.3746 0.472772 18.9202L37.0838 52.4723V52.4723C38.7406 52.7844 39.638 51.6052 39.7761 50.8075V38.5806Z" fill="url(#paint2_linear_49_251)"/>
<defs>
<linearGradient id="paint0_linear_49_251" x1="45.0572" y1="0" x2="45.0572" y2="53.0303" gradientUnits="userSpaceOnUse">
<stop stop-color="#32B5F1"/>
<stop offset="1" stop-color="#2B9FED"/>
</linearGradient>
<linearGradient id="paint1_linear_49_251" x1="39.7761" y1="6.69294" x2="1.93504" y2="38.4565" gradientUnits="userSpaceOnUse">
<stop stop-color="#0F6FB3"/>
<stop offset="0.270551" stop-color="#1279B7"/>
<stop offset="0.421376" stop-color="#1176B5"/>
<stop offset="0.618197" stop-color="#0E69AC"/>
<stop offset="0.855344" stop-color="#0F70AF"/>
<stop offset="1" stop-color="#0F6DAD"/>
</linearGradient>
<linearGradient id="paint2_linear_49_251" x1="2.18791" y1="15.1206" x2="39.9226" y2="46.3648" gradientUnits="userSpaceOnUse">
<stop stop-color="#1791D2"/>
<stop offset="1" stop-color="#1173C5"/>
</linearGradient>
</defs>
</svg>
