<svg width="1047" height="399" viewBox="0 0 1047 399" fill="none" xmlns="http://www.w3.org/2000/svg">
<g clip-path="url(#clip0_957_3)">
<path d="M34.9395 199.417C34.9395 161.39 58.3237 129.297 90.7397 115.897H90.7446L101.145 97.2158C55.2402 107.955 20.291 149.295 20.291 199.417C20.291 246.582 51.4858 286.838 94.8604 299.919L95.9639 284.89C59.9043 272.543 34.9395 238.441 34.9395 199.417Z" fill="white"/>
<path d="M155.68 98.9141L154.577 113.943C190.636 126.29 215.602 160.391 215.602 199.416C215.602 237.406 192.245 269.525 159.801 282.936H159.796L149.396 301.617C195.301 290.878 230.25 249.538 230.25 199.416C230.25 152.252 199.055 111.995 155.68 98.9141Z" fill="white"/>
<path d="M195.06 182.087C193.745 179.848 191.343 178.474 188.746 178.474H135.154L142.214 82.2782C142.465 78.8509 140.301 75.7098 137.009 74.7249C133.717 73.7381 130.183 75.1756 128.511 78.1781L55.3959 209.471C54.1328 211.74 54.165 214.507 55.4804 216.745C56.7958 218.984 59.1987 220.358 61.7949 220.358H115.388L108.327 316.555C108.076 319.982 110.24 323.122 113.533 324.107C116.852 325.101 120.373 323.631 122.031 320.654L195.145 189.362C196.408 187.093 196.376 184.326 195.06 182.087Z" fill="url(#paint0_linear_957_3)"/>
</g>
<path d="M266.771 227.016V307.416H246.071V167.916H266.471V203.916H268.871C276.371 179.916 295.571 164.616 320.471 164.616C353.171 164.616 367.571 185.616 367.571 216.216V307.416H346.871V220.716C346.871 199.716 338.471 183.516 313.271 183.516C285.371 183.516 266.771 200.916 266.771 227.016ZM415.938 114.816V307.416H395.538V114.816H415.938ZM448.013 357.816C439.313 357.816 433.013 356.916 427.613 356.016L430.913 337.116C436.913 338.316 442.613 338.916 448.613 338.916C465.413 338.916 475.913 334.416 488.213 306.516L426.713 167.916H449.513L469.013 217.116C476.513 236.316 488.513 266.316 496.913 289.116H500.513C508.913 266.016 519.713 236.916 526.913 217.716L545.513 167.916H567.413L506.813 309.216C492.113 343.416 475.313 357.816 448.013 357.816ZM642.588 310.716C593.388 310.416 570.588 286.416 565.488 250.116L586.188 245.616C591.288 275.916 608.688 292.416 643.188 292.416C674.688 292.416 688.188 279.816 688.188 260.916C688.188 241.716 675.588 232.416 638.688 225.816C589.788 217.116 573.888 198.816 573.888 172.716C573.888 143.316 595.188 124.116 637.788 124.116C680.388 124.116 698.088 145.116 705.288 177.516L683.688 182.016C677.688 155.916 666.888 142.416 636.888 142.416C608.688 142.416 595.188 153.516 595.188 171.516C595.188 188.016 604.788 199.116 645.888 207.216C696.588 216.816 709.788 234.516 709.788 259.416C709.788 290.016 690.288 310.716 642.588 310.716ZM738.23 266.616V185.616H715.43V167.916H738.23V127.716H758.63V167.916H806.03V185.616H758.63V265.116C758.63 282.516 765.53 291.516 782.33 291.516C790.13 291.516 796.13 290.316 804.53 287.916L807.53 306.216C798.23 309.216 790.43 310.716 778.73 310.716C750.83 310.716 738.23 292.416 738.23 266.616ZM880.02 181.716C853.02 181.716 836.22 197.016 833.22 227.616H923.52C922.32 198.516 909.12 181.716 880.02 181.716ZM881.22 310.716C838.02 310.716 812.22 283.716 812.22 238.116C812.22 191.916 839.52 164.616 880.62 164.616C921.72 164.616 942.72 190.416 942.72 228.816C942.72 232.116 942.72 238.116 942.12 243.516H832.92C834.72 274.716 851.22 293.016 881.22 293.016C908.82 293.016 918.42 278.616 923.52 260.916L941.82 266.316C934.92 293.916 916.32 310.716 881.22 310.716ZM995.178 158.616V167.916H1041.38V185.616H995.178V307.416H974.778V185.616H947.778V167.916H974.778V158.316C974.778 129.816 989.478 111.216 1019.18 111.216C1029.38 111.216 1036.58 112.716 1042.28 113.916L1041.08 130.116C1034.18 128.916 1028.18 128.016 1021.58 128.016C1002.38 128.016 995.178 139.116 995.178 158.616Z" fill="white"/>
<defs>
<linearGradient id="paint0_linear_957_3" x1="125.27" y1="74.416" x2="125.27" y2="324.416" gradientUnits="userSpaceOnUse">
<stop stop-color="#00AFFF"/>
<stop offset="1" stop-color="#0379AF"/>
</linearGradient>
<clipPath id="clip0_957_3">
<rect width="250" height="250" fill="white" transform="translate(0.270508 74.416)"/>
</clipPath>
</defs>
</svg>
