<svg width="54" height="54" viewBox="0 0 54 54" fill="none" xmlns="http://www.w3.org/2000/svg">
<circle cx="26.5152" cy="26.5152" r="26.5152" fill="#028CB0"/>
<path d="M8.4383 26.5152C8.4383 33.6786 12.605 39.8485 18.6306 42.7812L10.0088 19.1594C8.97351 21.4735 8.43834 23.9801 8.4383 26.5152ZM26.5152 44.5921C28.6146 44.5921 30.6338 44.2235 32.5248 43.5665L32.3966 43.3261L26.8357 28.1017L21.4191 43.8549C23.0216 44.3357 24.7364 44.5921 26.5152 44.5921ZM28.9992 18.0376L35.5377 37.4767L37.3486 31.4511C38.1178 28.9511 38.7107 27.1562 38.7107 25.6017C38.7107 23.3581 37.9095 21.8197 37.2364 20.6338C36.3069 19.1274 35.4575 17.8613 35.4575 16.387C35.4575 14.7203 36.7075 13.1818 38.5024 13.1818H38.7268C35.3959 10.124 31.0368 8.43072 26.5152 8.43825C23.5213 8.43769 20.5743 9.1814 17.9391 10.6025C15.304 12.0235 13.0634 14.0774 11.4191 16.5793L12.5729 16.6113C14.4639 16.6113 17.3806 16.3709 17.3806 16.3709C18.3742 16.3229 18.4864 17.7491 17.5088 17.8613C17.5088 17.8613 16.5312 17.9895 15.4255 18.0376L22.028 37.6209L25.9864 25.762L23.1659 18.0376C22.5341 18.0027 21.9035 17.9493 21.2748 17.8774C20.2973 17.8133 20.4095 16.3229 21.387 16.3709C21.387 16.3709 24.3678 16.6113 26.1466 16.6113C28.0377 16.6113 30.9543 16.3709 30.9543 16.3709C31.9319 16.3229 32.0601 17.7491 31.0825 17.8613C31.0825 17.8613 30.105 17.9735 28.9992 18.0376ZM35.6018 42.1402C38.3364 40.5501 40.606 38.2702 42.1836 35.5283C43.7613 32.7864 44.5918 29.6785 44.5921 26.5152C44.5921 23.3741 43.7909 20.4254 42.3806 17.8453C42.667 20.6839 42.2372 23.549 41.1306 26.1786L35.6018 42.1402ZM26.5152 47.3485C20.9899 47.3485 15.6908 45.1536 11.7838 41.2466C7.87682 37.3396 5.68188 32.0405 5.68188 26.5152C5.68188 20.9898 7.87682 15.6908 11.7838 11.7838C15.6908 7.87677 20.9899 5.68184 26.5152 5.68184C32.0406 5.68184 37.3396 7.87677 41.2466 11.7838C45.1536 15.6908 47.3486 20.9898 47.3486 26.5152C47.3486 32.0405 45.1536 37.3396 41.2466 41.2466C37.3396 45.1536 32.0406 47.3485 26.5152 47.3485Z" fill="white"/>
</svg>
